<svg id="Capa_1" data-name="Capa 1" xmlns="http://www.w3.org/2000/svg" viewBox="0 0 218.27 93.44"><defs><style>.cls-1{fill:#fff;}</style></defs><title>Mesa de trabajo 1</title><path class="cls-1" d="M60.14,67.79,40,71.63a7.15,7.15,0,0,0,2.82,3,7.89,7.89,0,0,0,4.08,1.1,7.28,7.28,0,0,0,3.6-.87,5.53,5.53,0,0,0,2.1-1.77l.6-.84L58.64,75q-.12.24-.39.69a12.54,12.54,0,0,1-6.91,5.19,14.06,14.06,0,0,1-4.53.72,13.37,13.37,0,0,1-10-3.9A14,14,0,0,1,36.9,58.4a13.08,13.08,0,0,1,9.67-3.93,13.07,13.07,0,0,1,9.61,3.83A13.3,13.3,0,0,1,60.14,67.79ZM46.56,60.35a7.26,7.26,0,0,0-5,1.8A7.09,7.09,0,0,0,39.23,67L53.11,64.3A6.71,6.71,0,0,0,46.56,60.35Z"/><path class="cls-1" d="M61.13,77.83l3.36-4.5q.42.36,1.08.84a15.26,15.26,0,0,0,2.64,1.32,9.55,9.55,0,0,0,3.72.84q3.24,0,3.24-2.64a2.28,2.28,0,0,0-1.29-2,17,17,0,0,0-3.07-1.41L67.16,69A6.76,6.76,0,0,1,64,66.62a6.92,6.92,0,0,1-1.29-4.29,7.2,7.2,0,0,1,2.52-5.65,9.11,9.11,0,0,1,6.25-2.22,15.94,15.94,0,0,1,5,.78,11.85,11.85,0,0,1,3.45,1.62l1.08.78-2.82,4.26a10.54,10.54,0,0,0-6.25-2.16,3.4,3.4,0,0,0-2.19.61A1.86,1.86,0,0,0,69,61.85a2.16,2.16,0,0,0,1.28,1.9,20,20,0,0,0,3,1.36L77,66.43A6.34,6.34,0,0,1,80.07,69a8.09,8.09,0,0,1,1.24,4.6,7.39,7.39,0,0,1-2.52,5.83,9.81,9.81,0,0,1-6.73,2.22,17.65,17.65,0,0,1-3.69-.39,15.24,15.24,0,0,1-3.09-1q-1.26-.57-2.22-1.11a13.74,13.74,0,0,1-1.44-.9Z"/><path class="cls-1" d="M84.66,49.76a3.45,3.45,0,0,1-1.05-2.58,3.55,3.55,0,0,1,1.05-2.61,3.48,3.48,0,0,1,2.55-1.05,3.58,3.58,0,0,1,2.58,1.05,3.66,3.66,0,0,1,0,5.17,3.74,3.74,0,0,1-5.17,0ZM84.15,81V55.06h6.19V81Z"/><path class="cls-1" d="M120.31,55.06V81.25q0,5.77-3.6,9T107,93.44a21.14,21.14,0,0,1-6.28-.9,15.45,15.45,0,0,1-4.17-1.8l-1.26-1,3.24-5.11c.24.2.59.46,1.05.78a15.19,15.19,0,0,0,2.85,1.29,12.24,12.24,0,0,0,4.32.81,8.14,8.14,0,0,0,5.47-1.65,5.81,5.81,0,0,0,1.92-4.65V79a7.87,7.87,0,0,1-.87.72,12.14,12.14,0,0,1-2.58,1.14,12.63,12.63,0,0,1-4.29.72,12.4,12.4,0,0,1-9.25-3.81A13.38,13.38,0,0,1,93.4,68a13.38,13.38,0,0,1,3.72-9.76,12.4,12.4,0,0,1,9.25-3.81,12.86,12.86,0,0,1,4.2.66,10.16,10.16,0,0,1,2.7,1.26l.84.66v-2Zm-8,18.59a7.53,7.53,0,0,0,2.1-5.62,7.53,7.53,0,0,0-2.1-5.62,7.78,7.78,0,0,0-10.57,0A7.52,7.52,0,0,0,99.59,68a7.52,7.52,0,0,0,2.1,5.62,7.78,7.78,0,0,0,10.57,0Z"/><path class="cls-1" d="M147.11,65.09V81h-6.19V65.63a6.59,6.59,0,0,0-1-3.78,3.77,3.77,0,0,0-3.36-1.5,5.29,5.29,0,0,0-4,1.77q-1.68,1.77-1.68,5.5V81h-6.19V55.06h6.19v2a9.25,9.25,0,0,1,6.85-2.58A9.5,9.5,0,0,1,144.38,57Q147.11,59.45,147.11,65.09Z"/><path class="cls-1" d="M149.49,77.83l3.36-4.5q.42.36,1.08.84a15.34,15.34,0,0,0,2.64,1.32,9.54,9.54,0,0,0,3.72.84q3.24,0,3.24-2.64a2.28,2.28,0,0,0-1.29-2,17,17,0,0,0-3.07-1.41L155.52,69a6.76,6.76,0,0,1-3.18-2.38,6.93,6.93,0,0,1-1.29-4.29,7.19,7.19,0,0,1,2.52-5.65,9.11,9.11,0,0,1,6.25-2.22,16,16,0,0,1,5,.78,11.89,11.89,0,0,1,3.45,1.62l1.08.78-2.82,4.26a10.55,10.55,0,0,0-6.25-2.16,3.4,3.4,0,0,0-2.19.61,1.86,1.86,0,0,0-.75,1.49,2.16,2.16,0,0,0,1.28,1.9,20,20,0,0,0,3,1.36l3.63,1.32A6.35,6.35,0,0,1,168.43,69a8.09,8.09,0,0,1,1.24,4.6,7.39,7.39,0,0,1-2.52,5.83,9.81,9.81,0,0,1-6.73,2.22,17.64,17.64,0,0,1-3.69-.39,15.21,15.21,0,0,1-3.09-1q-1.26-.57-2.22-1.11a13.74,13.74,0,0,1-1.44-.9Z"/><path class="cls-1" d="M12.59,46.07H0V81H12.59c10.7,0,18.47-7.36,18.47-17.51S23.29,46.07,12.59,46.07Zm11.7,17.51c0,6.51-4.81,11.06-11.7,11.06h-6V52.43h6C19.48,52.43,24.29,57,24.29,63.59Z"/><path class="cls-1" d="M57.43,24.28,37.32,28.12a7.15,7.15,0,0,0,2.82,3,7.9,7.9,0,0,0,4.08,1.1,7.27,7.27,0,0,0,3.6-.87,5.53,5.53,0,0,0,2.1-1.77l.6-.84,5.4,2.76q-.12.24-.39.69a13.35,13.35,0,0,1-1.29,1.59,13.38,13.38,0,0,1-2.25,2,13.23,13.23,0,0,1-3.36,1.59,14.08,14.08,0,0,1-4.53.72,13.37,13.37,0,0,1-10-3.9,13.24,13.24,0,0,1-3.84-9.67A13.38,13.38,0,0,1,43.86,11a13.06,13.06,0,0,1,9.61,3.83A13.3,13.3,0,0,1,57.43,24.28ZM43.85,16.84a7.27,7.27,0,0,0-5,1.8,7.09,7.09,0,0,0-2.34,4.8L50.4,20.79A6.71,6.71,0,0,0,43.85,16.84Z"/><path class="cls-1" d="M82.95,11.55,69.74,38.4,56.52,11.55h6.61l6.73,13.94,6.73-13.94Z"/><path class="cls-1" d="M84.66,6.25a3.45,3.45,0,0,1-1.05-2.58,3.55,3.55,0,0,1,1.05-2.61A3.48,3.48,0,0,1,87.21,0a3.58,3.58,0,0,1,2.58,1.05,3.5,3.5,0,0,1,1.08,2.61,3.48,3.48,0,0,1-1.05,2.55,3.74,3.74,0,0,1-5.17,0Zm-.51,31.25V11.55h6.19V37.49Z"/><path class="cls-1" d="M117.14,21.58V37.49H111V22.12a6.59,6.59,0,0,0-1-3.78,3.77,3.77,0,0,0-3.36-1.5,5.29,5.29,0,0,0-4,1.77q-1.68,1.77-1.68,5.5V37.49H94.74V11.55h6.19v2A9.26,9.26,0,0,1,107.77,11a9.5,9.5,0,0,1,6.64,2.49Q117.14,15.94,117.14,21.58Z"/><path class="cls-1" d="M184.82,15.15a13.16,13.16,0,0,1,3.9,9.64,13.57,13.57,0,1,1-27.14,0,13.65,13.65,0,0,1,23.24-9.64Zm-15,4.08a7.57,7.57,0,0,0-2.1,5.55,7.57,7.57,0,0,0,2.1,5.56,7.61,7.61,0,0,0,10.57,0,7.57,7.57,0,0,0,2.1-5.56,7.57,7.57,0,0,0-2.1-5.55,7.61,7.61,0,0,0-10.57,0Z"/><path class="cls-1" d="M214.36,15.15a13.16,13.16,0,0,1,3.9,9.64,13.57,13.57,0,1,1-27.14,0,13.65,13.65,0,0,1,23.24-9.64Zm-15,4.08a7.57,7.57,0,0,0-2.1,5.55,7.57,7.57,0,0,0,2.1,5.56,7.61,7.61,0,0,0,10.57,0,7.57,7.57,0,0,0,2.1-5.56,7.57,7.57,0,0,0-2.1-5.55,7.61,7.61,0,0,0-10.57,0Z"/><polygon class="cls-1" points="30.34 2.56 22.3 2.56 6.78 19.66 24.18 37.39 24.28 37.49 33.37 37.49 15.43 19.65 30.34 2.56"/><rect class="cls-1" y="2.56" width="6.78" height="34.93"/><polygon class="cls-1" points="141.36 17.23 141.45 17.44 150.41 38.35 165.77 2.53 158.97 2.53 150.41 22.5 150.32 22.28 141.36 1.37 132.3 22.51 132.21 22.29 123.73 2.53 116.94 2.53 132.3 38.36 141.36 17.23"/></svg>